# xmcd
#
# Track frame offsets: 
#        182
#        17127
#        28942
#        42850
#        65655
#        78030
#        88782
#        105957
#        121182
#        138657
#        156132
#        171430
#
# Disc length: 2374 seconds
#
# Revision: 3
# Processed by: cddbd v1.5.2PL0 Copyright (c) Steve Scherf et al.
# Submitted via: ExactAudioCopy v1.0b3
#
DISCID=9709440c
DTITLE=Cusco - Apurimac
DYEAR=1985
DGENRE=New Age
TTITLE0=Apurimac
TTITLE1=Flute Battle
TTITLE2=Tupac Amaru
TTITLE3=Flying Condor
TTITLE4=Inca Dance
TTITLE5=Pastorale
TTITLE6=Amazonas
TTITLE7=Inca Bridges
TTITLE8=Andes
TTITLE9=Atahualpa - The Last Inca
TTITLE10=Fighting Inca
TTITLE11=Apurimac II
EXTD=YEAR: 1985
EXTT0=
EXTT1=
EXTT2=
EXTT3=
EXTT4=
EXTT5=
EXTT6=
EXTT7=
EXTT8=
EXTT9=
EXTT10=
EXTT11=
PLAYORDER=
